<?xml version="1.0" standalone="no"?>
<!DOCTYPE svg PUBLIC "-//W3C//DTD SVG 20010904//EN"
 "http://www.w3.org/TR/2001/REC-SVG-20010904/DTD/svg10.dtd">
<svg version="1.0" xmlns="http://www.w3.org/2000/svg"
 width="32.000000pt" height="29.000000pt" viewBox="0 0 32.000000 29.000000"
 preserveAspectRatio="xMidYMid meet">

<g transform="translate(0.000000,29.000000) scale(0.100000,-0.100000)"
fill="#000000" stroke="none">
<path d="M0 281 c0 -6 11 -11 23 -11 22 0 26 -9 48 -92 l25 -93 81 -3 81 -3
25 55 c47 103 51 96 -52 96 -49 0 -93 -4 -96 -10 -4 -6 23 -10 74 -10 45 0 81
-2 81 -5 0 -2 -10 -25 -22 -50 l-22 -45 -67 0 -67 0 -23 88 c-24 85 -25 87
-57 90 -18 2 -32 -1 -32 -7z"/>
<path d="M74 35 c-4 -9 -2 -21 4 -27 15 -15 44 -1 40 19 -4 23 -36 29 -44 8z"/>
<path d="M242 28 c4 -30 43 -33 43 -3 0 13 -8 21 -23 23 -20 3 -23 0 -20 -20z"/>
</g>
</svg>
